<svg xmlns:inkscape="http://www.inkscape.org/namespaces/inkscape" xmlns:sodipodi="http://sodipodi.sourceforge.net/DTD/sodipodi-0.dtd" xmlns="http://www.w3.org/2000/svg" xmlns:svg="http://www.w3.org/2000/svg" version="1.0" width="652.000000pt" height="654.000000pt" viewBox="0 0 652.000000 654.000000" preserveAspectRatio="xMidYMid meet" id="svg16" sodipodi:docname="Logo.svg" inkscape:version="1.2.1 (9c6d41e4, 2022-07-14)">
  <defs id="defs20" fill="#4f190b"/>
  <sodipodi:namedview id="namedview18" pagecolor="#f1efa5" bordercolor="#f1efa5" borderopacity="1" inkscape:showpageshadow="0" inkscape:pageopacity="1" inkscape:pagecheckerboard="0" inkscape:deskcolor="#F1EFA5" inkscape:document-units="pt" showgrid="false" inkscape:zoom="0.2706422" inkscape:cx="-127.47458" inkscape:cy="436" inkscape:window-width="1309" inkscape:window-height="456" inkscape:window-x="0" inkscape:window-y="25" inkscape:window-maximized="0" inkscape:current-layer="svg16" fill="#4f190b"/>
  <path d="m 301,8.6 c -1.9,0.2 -8,0.9 -13.5,1.5 -22.8,2.4 -51.7,9.4 -76,18.3 -14.5,5.4 -44.1,20.2 -58,29.1 C 115,82.1 83.2,113.1 58.5,150 -3.1,242.1 -13.1,357.5 31.7,459 75.2,557.6 167.8,629.1 273.6,645.9 404.5,666.6 532.5,606.4 600.8,492 651,407.9 659.4,303 623.3,211.5 580.4,102.8 482.2,26.1 366,10.5 354.2,8.9 309.6,7.6 301,8.6 Z m 69.1,40.7 c 24.1,4.3 41,9 61,17.2 94.5,38.6 161.1,124.8 174.3,225.7 7.1,54 -1.8,109.3 -25.4,158.6 -14.4,30 -29.2,51 -52.5,75.1 -44.9,46.3 -98,73.4 -164.5,83.8 -14.3,2.2 -60.5,2.6 -74,0.5 -59.7,-9.1 -108.2,-31 -150.6,-68.3 C 84.3,494.3 50.8,429.3 43,356.2 41.4,341.7 42.2,302.3 44.4,288.5 54.8,223 82.7,169.2 129.6,124.1 c 42.6,-41 97,-67.5 154.9,-75.5 6.1,-0.9 12.4,-1.7 14,-2 1.7,-0.2 15.2,-0.3 30,-0.1 23.8,0.2 28.7,0.5 41.6,2.8 z" id="path2" style="fill:#4f190b;stroke:none;stroke-width:0.1"/>
  <path d="m 195.4,118.2 c -0.4,0.6 -7.1,71.6 -14.9,157.7 l -14.2,156.6 7.6,22.5 7.6,22.5 H 197 212.5 L 220.1,455 227.8,432.5 213.6,276 c -7.8,-86.1 -14.5,-157.1 -14.9,-157.8 -1,-1.5 -2.4,-1.5 -3.3,0 z m -0.7,305.4 c -0.5,0.5 -22.2,5.2 -22.7,4.9 -0.4,-0.2 20.6,-235.8 22.2,-249.5 0.2,-1.4 0.4,53 0.5,120.9 0.2,67.9 0.2,123.5 0,123.7 z M 211.5,305 c 6.2,67.9 11.1,123.6 11,123.8 -0.2,0.2 -5.4,-1 -11.6,-2.5 l -11.4,-2.8 -0.1,-123 c -0.1,-67.7 0.1,-122.1 0.3,-121 0.3,1.1 5.6,57.6 11.8,125.5 z M 195,451.1 v 22 l -5.2,-0.3 -5.1,-0.3 -6.4,-18.9 c -3.4,-10.4 -6.1,-19.2 -5.8,-19.4 0.6,-0.6 18.4,-5 20.8,-5.1 1.6,-0.1 1.7,1.6 1.7,22 z m 16.3,-19.7 c 5.4,1.3 10,2.5 10.2,2.8 0.3,0.2 -2.4,9 -5.9,19.4 l -6.3,18.9 h -4.9 -4.9 l -0.3,-21.8 c -0.2,-17 0,-21.7 1,-21.7 0.7,0 5.7,1.1 11.1,2.4 z" id="path4" style="fill:#4f190b;stroke:none;stroke-width:0.1"/>
  <path d="m 280.3,118.6 c -0.3,0.8 -6.9,71.8 -14.7,157.7 l -14.2,156.2 7.4,22 c 4.1,12.1 7.9,22.3 8.6,22.7 2,1.4 29.2,0.9 30.3,-0.5 0.6,-0.6 4.2,-10.9 8.2,-22.7 l 7.1,-21.5 -11,-121 C 296,244.9 289.7,175 288,156 c -1.7,-19 -3.3,-35.5 -3.6,-36.8 -0.5,-2.5 -3.2,-3 -4.1,-0.6 z m -0.6,305 c -0.6,0.6 -22.2,5.3 -22.6,4.8 -0.4,-0.3 17.4,-200.9 21.2,-238.9 1,-10 1.2,8.3 1.5,110.9 0.1,67.6 0.1,123 -0.1,123.2 z m 27.7,-0.3 c 0.5,5.2 0.4,5.8 -1.2,5.3 -0.9,-0.2 -6.1,-1.4 -11.4,-2.6 l -9.8,-2.2 0.1,-121.1 0.1,-121.2 10.8,118 c 5.9,64.9 11.1,120.6 11.4,123.8 z M 280,451 v 22 h -4.9 -4.9 l -3.1,-9.3 c -1.7,-5 -4.7,-13.7 -6.5,-19.2 -1.9,-5.5 -3.2,-10.2 -3,-10.4 0.4,-0.5 18.5,-4.9 20.7,-5 1.6,-0.1 1.7,1.6 1.7,21.9 z m 17.9,-19.3 c 4.6,1 8.5,2.2 8.7,2.8 0.3,0.6 -2.4,9.3 -5.8,19.5 l -6.3,18.5 -4.7,0.3 -4.8,0.3 v -22.2 -22.1 l 2.3,0.6 c 1.2,0.3 6,1.3 10.6,2.3 z" id="path6" style="fill:#4f190b;stroke:none;stroke-width:0.1"/>
  <path d="m 365.6,117.8 c -0.5,0.8 -6.2,62.4 -24.6,266.7 -2.2,24.2 -4.1,44.9 -4.2,46 -0.3,2.6 14.2,45.8 15.6,46.7 2,1.4 29.2,0.9 30.3,-0.5 0.6,-0.6 4.3,-11.1 8.2,-23.2 l 7.3,-22 -14.4,-157 c -12.6,-138.3 -14.5,-157 -16,-157.3 -0.9,-0.2 -1.9,0.1 -2.2,0.6 z m -0.9,305.9 c -0.6,0.6 -22.1,5.2 -22.5,4.8 -0.2,-0.2 4.7,-56.8 10.9,-125.7 l 11.4,-125.3 0.3,122.9 c 0.1,67.6 0.1,123.1 -0.1,123.3 z M 379.5,280 c 4.7,52 9.7,106.6 11,121.4 1.4,14.8 2.4,27 2.2,27.2 -0.2,0.3 -5.4,-0.8 -11.5,-2.2 l -11.2,-2.6 0.1,-121.7 c 0.1,-66.9 0.4,-120.5 0.6,-119.1 0.2,1.4 4.1,45 8.8,97 z M 365,451 v 22 h -4.9 -4.9 l -6.5,-19.5 -6.5,-19.5 2.6,-0.7 c 6.4,-1.6 17.8,-4.1 19,-4.2 0.9,-0.1 1.2,4.9 1.2,21.9 z m 17.5,-19.4 c 4.4,1 8.4,2.1 8.9,2.5 0.4,0.4 -2,9.3 -5.5,19.8 l -6.4,19.1 h -4.7 -4.8 v -22.1 -22.1 l 2.3,0.5 c 1.2,0.3 5.8,1.3 10.2,2.3 z" id="path8" style="fill:#4f190b;stroke:none;stroke-width:0.1"/>
  <path d="m 450.5,118.2 c -0.2,0.7 -6.8,71.7 -14.6,157.8 L 421.7,432.5 429,454 c 4,11.8 7.7,22.1 8.2,22.7 1.3,1.7 28.9,1.8 30.5,0.2 0.6,-0.6 4.3,-10.8 8.3,-22.7 l 7.3,-21.7 -14.2,-157 c -7.9,-86.3 -14.5,-157.3 -14.7,-157.7 -0.8,-1.3 -3.4,-0.9 -3.9,0.4 z M 450,301.4 v 122.4 l -11.2,2.6 c -6.1,1.4 -11.3,2.5 -11.5,2.3 -0.4,-0.4 22,-249.7 22.4,-249.7 0.2,0 0.3,55.1 0.3,122.4 z m 27.9,125.4 c 0.1,1.8 -0.3,2.2 -1.6,1.8 -1,-0.2 -6.2,-1.4 -11.5,-2.6 l -9.8,-2.2 0.1,-122.6 0.1,-122.7 11.4,123 c 6.2,67.6 11.3,124 11.3,125.3 z M 450,451 v 22 h -4.8 -4.7 l -6.4,-19 c -3.5,-10.5 -6,-19.4 -5.6,-19.8 0.6,-0.7 17.5,-4.9 20.3,-5.1 0.9,-0.1 1.2,4.9 1.2,21.9 z m 17.5,-19.4 c 4.4,1 8.4,2.1 8.9,2.6 0.6,0.5 -1.5,8.3 -5.4,19.8 l -6.4,19 h -4.8 -4.8 v -22.1 -22.1 l 2.3,0.5 c 1.2,0.3 5.8,1.3 10.2,2.3 z" id="path10" style="fill:#4f190b;stroke:none;stroke-width:0.1"/>
  <path d="m 316,508.5 c -7.1,2 -12.2,5.5 -16.1,10.8 -5,6.9 -6.2,10.5 -6.3,19.2 -0.1,6.8 0.3,8.8 2.6,13.5 8.3,17 26.8,23 43.7,14.2 10,-5.2 16.1,-15.7 16.1,-27.7 0,-8.3 -2.3,-14.5 -7.6,-20.4 -8.2,-9.1 -20.8,-12.8 -32.4,-9.6 z m 16.9,5.1 c 6.9,2 14.3,8.8 16.8,15.2 2.6,6.9 2.2,14.8 -1.1,21.6 -2.9,5.9 -6.5,9.4 -13,12.8 -5.8,3.1 -16.5,3 -22.5,-0.1 -16.6,-8.6 -20.1,-30.1 -7.1,-43.2 7.4,-7.3 16.4,-9.5 26.9,-6.3 z" id="path12" style="fill:#4f190b;stroke:none;stroke-width:0.1"/>
</svg>