<?xml version="1.0" ?><!DOCTYPE svg  PUBLIC '-//W3C//DTD SVG 1.1//EN'  'http://www.w3.org/Graphics/SVG/1.1/DTD/svg11.dtd'><svg enable-background="new 0 0 512 512" height="512px" id="Layer_1" version="1.1" viewBox="0 0 512 512" width="512px" xml:space="preserve" xmlns="http://www.w3.org/2000/svg" xmlns:xlink="http://www.w3.org/1999/xlink"><g><g><path d="M359.949,240.777c-3.942,0.164-8.377,0-16.756,1.644l-1.972,10.182c3.125-0.326,11.502-1.64,15.936-1.479    c4.438,0.165,9.365-0.491,7.885,6.572c-3.285,0.33-26.283-3.286-29.896,16.424c-1.48,9.696,6.898,14.621,13.469,14.292    c6.57-0.331,8.374-1.148,10.677-2.792l1.645,2.63h11.989l5.095-25.623C379.335,256.221,381.468,240.777,359.949,240.777z     M361.922,272.312c-0.828,4.279-6.895,7.004-11.004,5.422c-4.273-1.645-3.125-6.569,0.982-9.362    c4.108-2.792,8.871-1.482,11.009-1.148L361.922,272.312z" fill="#333333"/><path d="M324.139,242.255c4.27,0,6.57,0.327,9.854,2.299l8.38-8.378c-3.285-3.616-7.064-7.166-17.579-7.558    c-8.867-0.326-24.067,6.147-28.91,23.82c-6.572,23.981,7.884,35.811,21.191,35.811c7.064,0,11.334-0.985,15.607-2.96    l-3.778-11.494c-13.141,4.432-22.506-2.305-20.37-15.936C310.341,246.336,319.87,242.255,324.139,242.255z" fill="#333333"/><path d="M191.74,263.442c-2.463-1.639-6.57-3.939-9.198-5.092c-2.628-1.147-4.601-5.583,0.165-6.896    c2.955-0.331,9.033-0.331,12.649,0.656l2.954-9.529c-6.078-2.299-10.841-1.805-12.649-1.805c-1.806,0-17.189-0.189-19.547,11.169    c-1.806,8.704,1.382,12.309,4.435,13.634c4.93,2.137,7.724,4.107,10.351,5.422c3.251,1.62,2.655,7.062-1.644,7.062    c-1.973,0-10.514,0.985-16.92-1.152l-1.806,9.692c5.914,1.645,10.674,1.645,15.114,1.645c3.12,0,18.396,0.822,20.53-13.307    C197.218,268.051,194.203,264.92,191.74,263.442z" fill="#333333"/><path d="M263.033,267.224c1.477-7.559,4.929-26.284-17.576-26.284c-20.698,0-23.326,20.532-23.818,23.487    c-0.493,2.96-0.822,23.821,21.351,23.821c5.425,0.162,13.306-0.493,16.431-2.138l1.971-9.692    c-1.971,0.493-9.362,1.153-14.456,1.153c-5.092,0-13.304,0.33-11.829-10.347H263.033z M246.116,250.138    c5.089,0,6.569,3.943,5.747,8.542h-15.936C237.407,252.767,241.019,250.138,246.116,250.138z" fill="#333333"/><path d="M284.264,246.196l-1.149-4.598h-11.009l-8.701,46.65h12.811l3.943-21.358    c3.774-13.956,9.853-12.974,12.974-12.974l3.287-12.318C290.01,241.598,286.233,243.895,284.264,246.196z" fill="#333333"/><path d="M481.641,97.198H29.909c-16.638,0-30.126,13.488-30.126,30.126v257.901    c0,16.638,13.488,30.126,30.126,30.126h451.732c16.638,0,30.126-13.488,30.126-30.126V127.324    C511.767,110.686,498.279,97.198,481.641,97.198z M344.15,385.724c-30.52,0-58.287-10.682-80.22-28.582    c16.729-16.152,29.5-36.377,36.352-59.236H289.7c-6.629,20.321-18.276,38.255-33.419,52.642    c-15.051-14.349-26.591-32.35-33.201-52.585h-10.584c6.824,22.73,19.378,42.984,35.978,59.087    c-21.879,17.72-49.518,28.674-79.864,28.674c-70.331,0-127.348-57.017-127.348-127.345c0-70.332,57.017-127.348,127.348-127.348    c30.346,0,57.985,10.953,79.864,28.673c-16.601,16.101-29.154,36.354-35.978,59.084h10.584    c6.61-20.231,18.15-38.233,33.201-52.585c15.143,14.391,26.79,32.322,33.419,52.646l10.582-0.001    c-6.852-22.858-19.623-43.084-36.352-59.234c21.934-17.903,49.701-28.583,80.22-28.583c70.33,0,127.347,57.017,127.347,127.348    C471.497,328.707,414.48,385.724,344.15,385.724z" fill="#333333"/><path d="M398.974,245.736l-1.159-4.646h-11.116l-8.796,47.12h12.943l3.984-21.573    c3.815-14.097,9.787-13.27,12.94-13.27l3.483-12.276C404.784,241.09,400.966,243.41,398.974,245.736z" fill="#333333"/><polygon fill="#333333" points="101.888,231.411 86.28,265.91 83.816,231.411 63.283,231.411 52.277,288.248 65.089,288.248     72.973,247.18 76.423,288.248 88.581,288.248 106.487,248.168 98.928,288.248 112.236,288.248 122.913,231.411   "/><path d="M212.109,270.834l3.616-19.054h6.571l2.298-10.183h-6.897l2.627-12.484H207.51l-8.868,44.68    c-2.467,12.809,7.228,14.616,10.183,14.616c2.957,0,6.736-0.493,9.528-2.3l0.823-9.523    C211.782,277.734,211.452,274.449,212.109,270.834z" fill="#333333"/><path d="M408.903,260.98c-4.17,14.272,4.269,27.268,13.468,27.268c4.272-0.168,8.542-1.971,11.17-3.777    l1.645,3.777h13.798l11.169-59.792h-13.471l-3.447,18.068c-2.468-1.805-3.943-5.583-10.022-5.583    C426.151,240.94,415.142,239.627,408.903,260.98z M437.813,254.248c1.42,1.893,2.138,7.224,0.822,11.494    c-2.301,5.747-5.254,9.529-10.021,9.529c-4.432,0-8.374-5.096-6.57-11.829C424.808,253.147,433.873,248.991,437.813,254.248z" fill="#333333"/><path d="M143.118,240.777c-3.942,0.164-8.376,0-16.756,1.644l-1.972,10.182c3.124-0.326,11.502-1.64,15.935-1.479    c4.438,0.165,9.364-0.491,7.884,6.572c-3.286,0.33-26.281-3.286-29.894,16.424c-1.48,9.696,6.897,14.621,13.468,14.292    c6.571-0.331,8.377-1.148,10.679-2.792l1.644,2.63h11.989l5.094-25.623C162.503,256.221,164.636,240.777,143.118,240.777z     M145.09,272.312c-0.827,4.279-6.895,7.004-11.007,5.422c-4.272-1.645-3.124-6.569,0.985-9.362    c4.108-2.792,8.872-1.482,11.008-1.148L145.09,272.312z" fill="#333333"/></g></g></svg>